<svg xmlns="http://www.w3.org/2000/svg" version="1.1" xmlns:xlink="http://www.w3.org/1999/xlink" xmlns:svgjs="http://svgjs.dev/svgjs" width="100%" height="100%" viewBox="0 0 1000 600"><rect width="1000" height="600" x="0" y="0" fill="#ffffff"/><g><rect width="333.3333333333333" height="333.3333333333333" rx="13.333333333333334" ry="13.333333333333334" y="214.75523912827276" fill="#aaddff" transform="matrix(0.649239312647426,0,0,0.649239312647426,0,52.365912707408)" x="192.53305053710938"/><path d="M370.69991933818744 456.4218857857245L370.69991933818744 456.4218857857245Q354.04951035592273 456.4218857857245 339.91568339909696 450.8327326827147Q325.8111190239623 445.2728421613961 315.4814276869862 435.14798889625797Q305.15173635000997 425.0231356311199 299.35774517516217 411.3282473996614Q293.56375400031436 397.6333591682029 293.56375400031436 381.4218889113054L293.56375400031436 381.4218889113054Q293.56375400031436 365.210418654408 299.35774517516217 351.5155304229495Q305.15173635000997 337.820642191491 315.59847801375076 327.69578892635286Q326.0159570958004 317.5709356612147 340.14978405262616 312.0110451398961Q354.25434842776076 306.42189203688633 370.90475741002547 306.42189203688633L370.90475741002547 306.42189203688633Q386.91138959508487 306.42189203688633 401.01595397021947 311.7769444863669Q415.14978092704524 317.16125951753867 424.8356954668161 327.90062699819094L424.8356954668161 327.90062699819094L414.94494285520716 337.820642191491Q405.87354253095043 328.54440379539625 394.9293369784601 324.418379776944Q383.95586884427865 320.3216183401829 371.3144335537016 320.3216183401829L371.3144335537016 320.3216183401829Q358.05848404761036 320.3216183401829 346.6753397697528 324.8573185023113Q335.29219549189514 329.3930186644396 326.8645719648438 337.7035918647264Q318.43694843779235 346.0141650650132 313.69641020382596 357.0754209442681Q308.9558719698596 368.13667682352303 308.9558719698596 381.4218889113054L308.9558719698596 381.4218889113054Q308.9558719698596 394.7071009990878 313.69641020382596 405.7683568783428Q318.43694843779235 416.8296127575977 326.8645719648438 425.1401859578845Q335.29219549189514 433.45075915817125 346.6753397697528 437.9864593202996Q358.05848404761036 442.522159482428 371.3144335537016 442.522159482428L371.3144335537016 442.522159482428Q383.95586884427865 442.522159482428 394.9293369784601 438.30834771890227Q405.87354253095043 434.09453595537656 414.94494285520716 424.8182975592818L414.94494285520716 424.8182975592818L424.8356954668161 434.73831275258186Q415.14978092704524 445.47768023323414 401.01595397021947 450.94978300947935Q386.91138959508487 456.4218857857245 370.69991933818744 456.4218857857245Z " fill="#FFFFFFFF" transform="matrix(0.649239312647426,0,0,0.649239312647426,0,52.365912707408)"/><path d="M620.5133781496304 424.69495298477386L609.1997250130989 424.69495298477386L609.1997250130989 313.10823711761515L618.9192822086709 313.10823711761515L669.9303523193721 400.1414474497185L664.8381013968628 400.1414474497185L715.3620866367153 313.10823711761515L725.0816438322872 313.10823711761515L725.0816438322872 424.69495298477386L713.7679906957558 424.69495298477386L713.7679906957558 330.79827401798417L716.4690977068259 330.79827401798417L669.9303523193721 410.50307106595466L664.3510165260141 410.50307106595466L617.480167817527 330.79827401798417L620.5133781496304 330.79827401798417L620.5133781496304 424.69495298477386ZM759.6868098839477 456.42189025414655L759.6868098839477 456.42189025414655Q753.7753707695566 456.42189025414655 748.439577411623 454.4956909921539Q743.1037840536894 452.5916319515635 739.2735257511064 448.7613736489805L739.2735257511064 448.7613736489805L744.5428984448333 440.325949294737Q747.7310903267521 443.33701940543807 751.4727877437263 445.0196762320063Q755.2144851607004 446.7023330585746 759.8417914337632 446.7023330585746L759.8417914337632 446.7023330585746Q765.4211272271211 446.7023330585746 769.4727877437263 443.5805618408624Q773.5465884817337 440.48093084455246 777.2218652345011 432.6654326895709L777.2218652345011 432.6654326895709L782.6240792566414 420.3997500327443L783.9082120979699 418.6285323205672L818.3362563784126 341.00491608440484L829.4949279651285 341.00491608440484L787.5834888507374 434.74661350137904Q784.0631936477853 442.87207475599155 779.8344113599625 447.6543625788698Q775.6277692935417 452.436650401748 770.6683596994459 454.42927032794734Q765.7310903267521 456.42189025414655 759.6868098839477 456.42189025414655ZM789.3325663415122 417.83148435008746L782.0041530573794 427.08609689621295L743.4137471533204 341.00491608440484L755.2144851607004 341.00491608440484L789.3325663415122 417.83148435008746ZM895.0078430942798 425.64698250506905L895.0078430942798 425.64698250506905Q882.4321973378222 425.64698250506905 871.7384704005528 421.4182002172462Q861.0668836846856 417.2115581508255 853.2513855297042 409.5510415456594Q845.4358873747226 401.89052494049344 841.0521235370843 391.5289013242572Q836.6683596994459 381.1672777080211 836.6683596994459 368.90159505119453L836.6683596994459 368.90159505119453Q836.6683596994459 356.63591239436795 841.0521235370843 346.2742887781318Q845.4358873747226 335.91266516189563 853.3399464153131 328.25214855672954Q861.2218652345013 320.5916319515635 871.8934519503684 316.38498988514283Q882.5871788876377 312.15620759731996 895.1849648654975 312.15620759731996L895.1849648654975 312.15620759731996Q907.2956659725086 312.15620759731996 917.9672526883758 316.20786811392514Q928.660979625645 320.2816688519325 935.989392909778 328.407130106545L935.989392909778 328.407130106545L928.4838578544274 335.91266516189563Q921.6425294411433 328.8942149773938 913.3399464153131 325.7724437596816Q905.059503610885 322.6728127633716 895.4949279651285 322.6728127633716L895.4949279651285 322.6728127633716Q885.4432674485233 322.6728127633716 876.8528615444643 326.1045470807148Q868.2403154190031 329.53628139805795 861.8639316551654 335.82410427628673Q855.4875478913278 342.11192715451557 851.9008320241691 350.48093084455246Q848.3141161570104 358.84993453458935 848.3141161570104 368.90159505119453L848.3141161570104 368.90159505119453Q848.3141161570104 378.95325556779966 851.9008320241691 387.3222592578366Q855.4875478913278 395.6912629478735 861.8639316551654 401.9790858261023Q868.2403154190031 408.26690870433106 876.8528615444643 411.69864302167423Q885.4432674485233 415.1303773390174 895.4949279651285 415.1303773390174L895.4949279651285 415.1303773390174Q905.059503610885 415.1303773390174 913.3399464153131 411.94218545709856Q921.6425294411433 408.7539935751798 928.4838578544274 401.7355433906779L928.4838578544274 401.7355433906779L935.989392909778 409.24107844602844Q928.660979625645 417.366539700641 917.9672526883758 421.506761102855Q907.2956659725086 425.64698250506905 895.0078430942798 425.64698250506905ZM989.2366253821027 425.49200095525356L989.2366253821027 425.49200095525356Q977.1037840536894 425.49200095525356 967.4727877437263 420.0012260475045Q957.8196512123609 414.4883109183532 952.2403154190031 404.8573146083901Q946.660979625645 395.2041780770248 946.660979625645 382.7613736489805L946.660979625645 382.7613736489805Q946.660979625645 370.18572789252295 952.2403154190031 360.6211522467665Q957.8196512123609 351.05657660101 967.3842268581175 345.6322223574676Q976.9488025038738 340.20786811392514 989.2366253821027 340.20786811392514L989.2366253821027 340.20786811392514Q1001.6572895887448 340.20786811392514 1011.3104261201102 345.6322223574676Q1020.9414224300731 351.05657660101 1026.4543375592243 360.6211522467665Q1031.9451124669736 370.18572789252295 1031.9451124669736 382.7613736489805L1031.9451124669736 382.7613736489805Q1031.9451124669736 395.2041780770248 1026.4543375592243 404.8573146083901Q1020.9414224300731 414.4883109183532 1011.2218652345011 420.0012260475045Q1001.5023080389293 425.49200095525356 989.2366253821027 425.49200095525356ZM989.2366253821027 415.4403404386484L989.2366253821027 415.4403404386484Q998.3141161570104 415.4403404386484 1005.3325663415123 411.3886799220432Q1012.3510165260142 407.3148791840358 1016.4026770426192 399.89790501429417Q1020.4764777806267 392.50307106595466 1020.4764777806267 382.7613736489805L1020.4764777806267 382.7613736489805Q1020.4764777806267 372.886834903593 1016.4026770426192 365.5584216194602Q1012.3510165260142 358.23000833532734 1005.3325663415123 354.15620759731996Q998.3141161570104 350.0824068593126 989.3916069319182 350.0824068593126L989.3916069319182 350.0824068593126Q980.469097706826 350.0824068593126 973.4506475223241 354.15620759731996Q966.4321973378222 358.23000833532734 962.2919759356082 365.5584216194602Q958.1517545333942 372.886834903593 958.1517545333942 382.7613736489805L958.1517545333942 382.7613736489805Q958.1517545333942 392.50307106595466 962.2919759356082 399.89790501429417Q966.4321973378222 407.3148791840358 973.4506475223241 411.3886799220432Q980.469097706826 415.4403404386484 989.2366253821027 415.4403404386484ZM1097.790130917158 340.20786811392514L1097.790130917158 340.20786811392514Q1107.9967729835787 340.20786811392514 1115.7237102529514 344.1045470807148Q1123.450647522324 348.02336626890667 1127.8344113599624 355.99384597370374Q1132.2181751976009 363.96432567850076 1132.2181751976009 376.07502678551185L1132.2181751976009 376.07502678551185L1132.2181751976009 424.69495298477386L1120.9045220610697 424.69495298477386L1120.9045220610697 377.1820378556226Q1120.9045220610697 363.96432567850076 1114.2845958618075 357.1894179294233Q1107.6646696625455 350.4145101803458 1095.70895010535 350.4145101803458L1095.70895010535 350.4145101803458Q1086.7864408802577 350.4145101803458 1080.1665146809958 354.0012260475045Q1073.5465884817336 357.58794191466313 1069.959872614575 364.36284966374063Q1066.3731567474163 371.13775741281813 1066.3731567474163 380.70233305857454L1066.3731567474163 380.70233305857454L1066.3731567474163 424.69495298477386L1055.059503610885 424.69495298477386L1055.059503610885 341.00491608440484L1065.9082120979697 341.00491608440484L1065.9082120979697 363.96432567850076L1064.1591346071948 359.64698250506905Q1068.1443744595936 350.5694917301613 1076.9119021348702 345.3886799220432Q1085.679429810147 340.20786811392514 1097.790130917158 340.20786811392514ZM1196.1369943857926 425.49200095525356L1196.1369943857926 425.49200095525356Q1184.181274828597 425.49200095525356 1174.7052600684497 420.0676467117111Q1165.2071050868997 414.6432924681687 1159.8048910647594 405.0122961582056Q1154.380536821217 395.35915962684027 1154.380536821217 382.7613736489805L1154.380536821217 382.7613736489805Q1154.380536821217 370.0086061213052 1159.8048910647594 360.44403047554874Q1165.2071050868997 350.8794548297923 1174.7052600684497 345.54366147185874Q1184.181274828597 340.20786811392514 1196.1369943857926 340.20786811392514L1196.1369943857926 340.20786811392514Q1207.140684422693 340.20786811392514 1215.819651212361 345.14513748661886Q1224.5207582234311 350.0824068593126 1229.7015700315494 359.5805618408624Q1234.8823818396672 369.05657660101 1234.8823818396672 382.7613736489805L1234.8823818396672 382.7613736489805Q1234.8823818396672 396.31118914713545 1229.7679906957558 405.8757647928919Q1224.6757397732465 415.4403404386484 1215.9967729835785 420.466170696951Q1207.2956659725087 425.49200095525356 1196.1369943857926 425.49200095525356ZM1196.9340423562726 415.4403404386484L1196.9340423562726 415.4403404386484Q1205.8565515813648 415.4403404386484 1212.9635626514755 411.3886799220432Q1220.0484335001838 407.3148791840358 1224.1222342381914 399.89790501429417Q1228.1738947547963 392.50307106595466 1228.1738947547963 382.7613736489805L1228.1738947547963 382.7613736489805Q1228.1738947547963 372.886834903593 1224.1222342381914 365.5584216194602Q1220.0484335001838 358.23000833532734 1212.9635626514755 354.15620759731996Q1205.8565515813648 350.0824068593126 1196.9340423562726 350.0824068593126L1196.9340423562726 350.0824068593126Q1188.1665146809955 350.0824068593126 1181.148064496494 354.15620759731996Q1174.151754533394 358.23000833532734 1169.989392909778 365.5584216194602Q1165.8491715075638 372.886834903593 1165.8491715075638 382.7613736489805L1165.8491715075638 382.7613736489805Q1165.8491715075638 392.50307106595466 1169.989392909778 399.89790501429417Q1174.151754533394 407.3148791840358 1181.148064496494 411.3886799220432Q1188.1665146809955 415.4403404386484 1196.9340423562726 415.4403404386484ZM1239.3325663415123 424.69495298477386L1228.5059980758297 424.69495298477386L1228.5059980758297 399.4993810290543L1229.6130091459404 382.60639209916496L1228.018913204981 365.7134031692757L1228.018913204981 306.42189025414655L1239.3325663415123 306.42189025414655L1239.3325663415123 424.69495298477386ZM1305.0226032418811 425.49200095525356L1305.0226032418811 425.49200095525356Q1292.9119021348702 425.49200095525356 1283.258765603505 420.0012260475045Q1273.6056290721397 414.4883109183532 1268.0262932787816 404.8573146083901Q1262.4469574854236 395.2041780770248 1262.4469574854236 382.7613736489805L1262.4469574854236 382.7613736489805Q1262.4469574854236 370.18572789252295 1268.0262932787816 360.6211522467665Q1273.6056290721397 351.05657660101 1283.170204717896 345.6322223574676Q1292.7347803636524 340.20786811392514 1305.0226032418811 340.20786811392514L1305.0226032418811 340.20786811392514Q1317.4432674485233 340.20786811392514 1327.0964039798887 345.6322223574676Q1336.7495405112538 351.05657660101 1342.240315419003 360.6211522467665Q1347.7310903267519 370.18572789252295 1347.7310903267519 382.7613736489805L1347.7310903267519 382.7613736489805Q1347.7310903267519 395.2041780770248 1342.240315419003 404.8573146083901Q1336.7495405112538 414.4883109183532 1327.00784309428 420.0012260475045Q1317.2882858987077 425.49200095525356 1305.0226032418811 425.49200095525356ZM1305.0226032418811 415.4403404386484L1305.0226032418811 415.4403404386484Q1314.100094016789 415.4403404386484 1321.118544201291 411.3886799220432Q1328.1369943857928 407.3148791840358 1332.1886549023977 399.89790501429417Q1336.2624556404053 392.50307106595466 1336.2624556404053 382.7613736489805L1336.2624556404053 382.7613736489805Q1336.2624556404053 372.886834903593 1332.1886549023977 365.5584216194602Q1328.1369943857928 358.23000833532734 1321.118544201291 354.15620759731996Q1314.100094016789 350.0824068593126 1305.1775847916967 350.0824068593126L1305.1775847916967 350.0824068593126Q1296.2550755666045 350.0824068593126 1289.2366253821026 354.15620759731996Q1282.2181751976007 358.23000833532734 1278.077953795387 365.5584216194602Q1273.9377323931728 372.886834903593 1273.9377323931728 382.7613736489805L1273.9377323931728 382.7613736489805Q1273.9377323931728 392.50307106595466 1278.077953795387 399.89790501429417Q1282.2181751976007 407.3148791840358 1289.2366253821026 411.3886799220432Q1296.2550755666045 415.4403404386484 1305.0226032418811 415.4403404386484Z " fill="#209cee" transform="matrix(0.649239312647426,0,0,0.649239312647426,0,52.365912707408)"/></g></svg>